<svg width="24.000000" height="24.000000" viewBox="0 0 24 24" fill="none" xmlns="http://www.w3.org/2000/svg" xmlns:xlink="http://www.w3.org/1999/xlink">
	<desc>
			Created with Pixso.
	</desc>
	<defs>
		<clipPath id="clip1_1091">
			<rect id="basic / alarm" width="24.000000" height="24.000000" fill="white" fill-opacity="0"/>
		</clipPath>
	</defs>
	<g clip-path="url(#clip1_1091)">
		<path id="coolicon" d="M11.99 22C7.05 21.93 3.06 17.94 2.99 13C3.06 8.05 7.05 4.06 11.99 4C16.94 4.06 20.93 8.05 20.99 13C20.93 17.94 16.94 21.93 11.99 22ZM11.99 6C8.15 6.05 5.04 9.15 4.99 13C5.04 16.84 8.15 19.94 11.99 20C15.84 19.94 18.94 16.84 18.99 13C18.94 9.15 15.84 6.05 11.99 6ZM16.99 14L10.99 14L10.99 8L12.99 8L12.99 12L16.99 12L16.99 14ZM20.29 6.7L17.28 3.7L18.69 2.29L21.7 5.29L20.29 6.7L20.29 6.7ZM3.7 6.7L2.29 5.29L5.28 2.29L6.69 3.7L3.7 6.7L3.7 6.7Z" fill="#182233" fill-opacity="1.000000" fill-rule="nonzero"/>
	</g>
</svg>
