<svg width="24.000000" height="24.000000" viewBox="0 0 24 24" fill="none" xmlns="http://www.w3.org/2000/svg" xmlns:xlink="http://www.w3.org/1999/xlink">
	<desc>
			Created with Pixso.
	</desc>
	<defs>
		<clipPath id="clip1_1077">
			<rect id="basic / calendar" width="24.000000" height="24.000000" fill="white" fill-opacity="0"/>
		</clipPath>
	</defs>
	<g clip-path="url(#clip1_1077)">
		<path id="coolicon" d="M19 22L5 22C3.89 22 3 21.1 3 20L3 6C3 4.89 3.89 4 5 4L7 4L7 2L9 2L9 4L15 4L15 2L17 2L17 4L19 4C20.1 4 21 4.89 21 6L21 20C21 21.1 20.1 22 19 22ZM5 10L5 20L19 20L19 10L5 10ZM5 6L5 8L19 8L19 6L5 6ZM17 18L15 18L15 16L17 16L17 18ZM13 18L11 18L11 16L13 16L13 18ZM9 18L7 18L7 16L9 16L9 18ZM17 14L15 14L15 12L17 12L17 14ZM13 14L11 14L11 12L13 12L13 14ZM9 14L7 14L7 12L9 12L9 14Z" fill="#182233" fill-opacity="1.000000" fill-rule="nonzero"/>
	</g>
</svg>
