<svg width="20.000000" height="20.000000" viewBox="0 0 20 20" fill="none" xmlns="http://www.w3.org/2000/svg" xmlns:xlink="http://www.w3.org/1999/xlink">
	<desc>
			Created with Pixso.
	</desc>
	<defs>
		<clipPath id="clip1_810">
			<rect id="dots-vertical" width="20.000000" height="20.000000" fill="white" fill-opacity="0"/>
		</clipPath>
	</defs>
	<rect id="Property 1=Rest" width="20.000000" height="20.000000" fill="#FFFFFF" fill-opacity="0"/>
	<rect id="dots-vertical" width="20.000000" height="20.000000" fill="#FFFFFF" fill-opacity="0"/>
	<g clip-path="url(#clip1_810)">
		<path id="Vector" d="M10 6C9.46 6 8.96 5.78 8.58 5.41C8.21 5.03 8 4.53 8 4C8 3.46 8.21 2.96 8.58 2.58C8.96 2.21 9.46 2 10 2C10.53 2 11.03 2.21 11.41 2.58C11.78 2.96 12 3.46 12 4C12 4.53 11.78 5.03 11.41 5.41C11.03 5.78 10.53 6 10 6ZM10 12C9.46 12 8.96 11.78 8.58 11.41C8.21 11.03 8 10.53 8 10C8 9.46 8.21 8.96 8.58 8.58C8.96 8.21 9.46 8 10 8C10.53 8 11.03 8.21 11.41 8.58C11.78 8.96 12 9.46 12 10C12 10.53 11.78 11.03 11.41 11.41C11.03 11.78 10.53 12 10 12ZM10 18C9.46 18 8.96 17.78 8.58 17.41C8.21 17.03 8 16.53 8 16C8 15.46 8.21 14.96 8.58 14.58C8.96 14.21 9.46 14 10 14C10.53 14 11.03 14.21 11.41 14.58C11.78 14.96 12 15.46 12 16C12 16.53 11.78 17.03 11.41 17.41C11.03 17.78 10.53 18 10 18Z" fill="#116ACC" fill-opacity="1.000000" fill-rule="nonzero"/>
	</g>
</svg>
