<svg width="24.000000" height="24.000000" viewBox="0 0 24 24" fill="none" xmlns="http://www.w3.org/2000/svg" xmlns:xlink="http://www.w3.org/1999/xlink">
	<desc>
			Created with Pixso.
	</desc>
	<defs>
		<clipPath id="clip1_1088">
			<rect id="basic / help_circle_outline" width="24.000000" height="24.000000" fill="white" fill-opacity="0"/>
		</clipPath>
	</defs>
	<g clip-path="url(#clip1_1088)">
		<path id="coolicon" d="M12 22C6.47 21.99 2 17.52 2 12L2 11.8C2.1 6.3 6.63 1.92 12.13 2C17.62 2.07 22.03 6.56 21.99 12.06C21.96 17.56 17.49 21.99 12 22ZM11.98 20L12 20C16.41 19.99 19.99 16.41 19.99 11.99C19.98 7.57 16.4 4 11.99 4C7.57 4 3.99 7.57 3.99 11.99C3.98 16.41 7.56 19.99 11.98 20ZM13 18L11 18L11 16L13 16L13 18ZM13 15L11 15C10.96 13.69 11.64 12.48 12.77 11.82C13.43 11.31 14 10.88 14 10C14 8.89 13.1 8 12 8C10.89 8 10 8.89 10 10L8 10L8 9.9C8.01 8.48 8.79 7.16 10.03 6.46C11.28 5.76 12.8 5.78 14.03 6.51C15.26 7.24 16.01 8.57 16 10C15.92 11.07 15.34 12.06 14.44 12.64C13.61 13.16 13.08 14.03 13 15Z" fill="#182233" fill-opacity="1.000000" fill-rule="nonzero"/>
	</g>
</svg>
