<svg width="24.000000" height="24.000000" viewBox="0 0 24 24" fill="none" xmlns="http://www.w3.org/2000/svg" xmlns:xlink="http://www.w3.org/1999/xlink">
	<desc>
			Created with Pixso.
	</desc>
	<defs>
		<clipPath id="clip1_1145">
			<rect id="home / home_alt_outline" width="24.000000" height="24.000000" fill="white" fill-opacity="0"/>
		</clipPath>
	</defs>
	<g clip-path="url(#clip1_1145)">
		<path id="coolicon" d="M19 22L5 22C4.44 22 4 21.55 4 21L4 13L2 13L11.29 3.7C11.47 3.51 11.73 3.41 11.99 3.41C12.26 3.41 12.51 3.51 12.7 3.7L22 13L20 13L20 21C20 21.55 19.55 22 19 22ZM10 15L14 15L14 20L18 20L18 11.82L12 5.82L6 11.82L6 20L10 20L10 15Z" fill="#182233" fill-opacity="1.000000" fill-rule="nonzero"/>
	</g>
</svg>
