<svg width="24.000000" height="24.000000" viewBox="0 0 24 24" fill="none" xmlns="http://www.w3.org/2000/svg" xmlns:xlink="http://www.w3.org/1999/xlink">
	<desc>
			Created with Pixso.
	</desc>
	<defs>
		<clipPath id="clip1_1209">
			<rect id="notification / notification" width="24.000000" height="24.000000" fill="white" fill-opacity="0"/>
		</clipPath>
	</defs>
	<g clip-path="url(#clip1_1209)">
		<path id="coolicon" d="M12 22C10.89 21.99 10 21.1 9.98 20L13.99 20C13.99 20.26 13.94 20.53 13.84 20.77C13.57 21.38 13.04 21.82 12.4 21.96L12.39 21.96L12.38 21.96L12.36 21.96L12.35 21.96C12.23 21.98 12.11 21.99 12 22ZM20 19L4 19L4 17L6 16L6 10.5C5.94 9.08 6.26 7.68 6.92 6.43C7.57 5.28 8.69 4.45 10 4.18L10 2L14 2L14 4.18C16.57 4.79 18 7.03 18 10.5L18 16L20 17L20 19Z" fill="#182233" fill-opacity="1.000000" fill-rule="nonzero"/>
	</g>
</svg>
