<svg width="24.000000" height="24.000000" viewBox="0 0 24 24" fill="none" xmlns="http://www.w3.org/2000/svg" xmlns:xlink="http://www.w3.org/1999/xlink">
	<desc>
			Created with Pixso.
	</desc>
	<defs>
		<clipPath id="clip1_1120">
			<rect id="basic / settings" width="24.000000" height="24.000000" fill="white" fill-opacity="0"/>
		</clipPath>
	</defs>
	<g clip-path="url(#clip1_1120)">
		<path id="coolicon" d="M13.82 22L10.18 22C9.71 22 9.3 21.67 9.2 21.21L8.79 19.33C8.25 19.09 7.73 18.79 7.26 18.44L5.42 19.02C4.97 19.17 4.48 18.98 4.25 18.57L2.43 15.42C2.19 15.01 2.27 14.5 2.62 14.18L4.04 12.88C3.98 12.29 3.98 11.7 4.04 11.11L2.62 9.81C2.27 9.49 2.19 8.98 2.43 8.57L4.25 5.42C4.48 5.01 4.97 4.82 5.42 4.97L7.25 5.55C7.5 5.37 7.75 5.2 8.01 5.05C8.27 4.91 8.53 4.78 8.79 4.66L9.2 2.78C9.3 2.32 9.71 2 10.18 2L13.82 2C14.28 2 14.69 2.32 14.79 2.78L15.2 4.66C15.48 4.79 15.76 4.93 16.02 5.08C16.27 5.23 16.51 5.38 16.74 5.55L18.58 4.97C19.02 4.82 19.51 5.01 19.74 5.42L21.56 8.57C21.8 8.98 21.72 9.49 21.37 9.81L19.95 11.11C20.01 11.7 20.01 12.3 19.95 12.88L21.37 14.18C21.72 14.5 21.8 15.02 21.56 15.42L19.74 18.58C19.51 18.98 19.02 19.17 18.58 19.03L16.74 18.44C16.5 18.62 16.26 18.77 16.01 18.92C15.75 19.07 15.48 19.21 15.2 19.33L14.79 21.21C14.69 21.67 14.28 21.99 13.82 22ZM7.62 16.22L8.44 16.82C8.62 16.96 8.81 17.09 9.01 17.2C9.2 17.31 9.39 17.41 9.59 17.5L10.52 17.9L10.98 20L13.01 20L13.47 17.9L14.4 17.49C14.81 17.31 15.2 17.09 15.55 16.83L16.38 16.23L18.42 16.88L19.43 15.12L17.85 13.68L17.96 12.66C18.01 12.22 18.01 11.78 17.96 11.33L17.85 10.32L19.43 8.87L18.42 7.12L16.38 7.77L15.55 7.17C15.19 6.9 14.81 6.68 14.4 6.5L13.47 6.09L13.01 4L10.98 4L10.52 6.09L9.59 6.5C9.39 6.58 9.2 6.68 9.01 6.79C8.81 6.9 8.62 7.03 8.44 7.16L7.62 7.76L5.58 7.11L4.56 8.87L6.14 10.32L6.03 11.33C5.98 11.77 5.98 12.22 6.03 12.66L6.14 13.67L4.56 15.12L5.58 16.87L7.62 16.22ZM11.99 16C9.78 16 7.99 14.2 7.99 12C7.99 9.79 9.78 8 11.99 8C14.2 8 15.99 9.79 15.99 12C15.99 14.2 14.2 15.99 11.99 16ZM11.99 10C10.9 10 10.01 10.87 9.99 11.97C9.98 13.06 10.84 13.96 11.93 13.99C13.03 14.03 13.94 13.18 13.99 12.08L13.99 12.49L13.99 12C13.99 10.89 13.1 10 11.99 10Z" fill="#182233" fill-opacity="1.000000" fill-rule="nonzero"/>
	</g>
</svg>
