<svg width="24.000000" height="24.000000" viewBox="0 0 24 24" fill="none" xmlns="http://www.w3.org/2000/svg" xmlns:xlink="http://www.w3.org/1999/xlink">
	<desc>
			Created with Pixso.
	</desc>
	<defs>
		<clipPath id="clip1_1206">
			<rect id="basic / settings_filled" width="24.000000" height="24.000000" fill="white" fill-opacity="0"/>
		</clipPath>
	</defs>
	<g clip-path="url(#clip1_1206)">
		<path id="coolicon" d="M13.82 22L10.18 22C9.71 22 9.3 21.67 9.2 21.21L8.79 19.33C8.25 19.09 7.73 18.79 7.26 18.44L5.42 19.02C4.97 19.17 4.48 18.98 4.25 18.57L2.42 15.42C2.19 15.01 2.27 14.5 2.62 14.18L4.04 12.88C3.98 12.29 3.98 11.7 4.04 11.11L2.62 9.81C2.27 9.49 2.19 8.98 2.42 8.57L4.25 5.42C4.48 5.01 4.97 4.82 5.41 4.97L7.25 5.55C7.5 5.37 7.75 5.2 8.01 5.05C8.27 4.91 8.53 4.78 8.79 4.66L9.2 2.78C9.3 2.32 9.71 2 10.18 2L13.82 2C14.28 2 14.69 2.32 14.79 2.78L15.2 4.66C15.48 4.79 15.76 4.93 16.02 5.08C16.27 5.23 16.51 5.38 16.74 5.55L18.58 4.97C19.02 4.82 19.51 5.01 19.75 5.42L21.57 8.57C21.8 8.98 21.72 9.49 21.37 9.81L19.95 11.11C20.01 11.7 20.01 12.3 19.95 12.88L21.37 14.18C21.72 14.5 21.8 15.02 21.57 15.42L19.75 18.58C19.51 18.98 19.02 19.17 18.58 19.03L16.74 18.44C16.51 18.62 16.26 18.77 16.01 18.92C15.75 19.07 15.48 19.21 15.2 19.33L14.79 21.21C14.69 21.67 14.28 21.99 13.82 22ZM11.99 8C9.78 8 7.99 9.79 7.99 12C7.99 14.2 9.78 16 11.99 16C14.2 16 15.99 14.2 15.99 12C15.99 9.79 14.2 8 11.99 8Z" fill="#182233" fill-opacity="1.000000" fill-rule="nonzero"/>
	</g>
</svg>
