<svg width="24.000000" height="24.000000" viewBox="0 0 24 24" fill="none" xmlns="http://www.w3.org/2000/svg" xmlns:xlink="http://www.w3.org/1999/xlink">
	<desc>
			Created with Pixso.
	</desc>
	<defs>
		<clipPath id="clip1_1200">
			<rect id="attention / warning" width="24.000000" height="24.000000" fill="white" fill-opacity="0"/>
		</clipPath>
	</defs>
	<g clip-path="url(#clip1_1200)">
		<path id="coolicon" d="M21.26 20.99L2.73 20.99C2.37 20.99 2.04 20.8 1.86 20.49C1.68 20.18 1.68 19.8 1.86 19.49L11.13 3.49C11.31 3.18 11.64 2.99 11.99 2.99C12.35 2.99 12.68 3.18 12.86 3.49L22.13 19.49C22.3 19.8 22.3 20.18 22.13 20.49C21.95 20.8 21.62 20.99 21.26 20.99L21.26 20.99ZM11 15.99L11 17.99L11.93 17.99L11.99 17.99L12.06 17.99L12.99 17.99L12.99 15.99L11 15.99ZM11 8.99L11 13.99L13 13.99L13 8.99L11 8.99Z" fill="#ba0000" fill-opacity="1.000000" fill-rule="nonzero"/>
	</g>
</svg>
