<svg width="24.000000" height="24.000000" viewBox="0 0 24 24" fill="none" xmlns="http://www.w3.org/2000/svg" xmlns:xlink="http://www.w3.org/1999/xlink">
	<desc>
			Created with Pixso.
	</desc>
	<defs>
		<clipPath id="clip1_1096">
			<rect id="attention / warning_outline" width="24.000000" height="24.000000" fill="white" fill-opacity="0"/>
		</clipPath>
	</defs>
	<g clip-path="url(#clip1_1096)">
		<path id="coolicon" d="M21.26 20.99L21.26 20.99C21.62 20.99 21.95 20.8 22.13 20.49C22.3 20.18 22.3 19.8 22.13 19.49L12.86 3.49C12.68 3.18 12.35 2.99 11.99 2.99C11.64 2.99 11.31 3.18 11.13 3.49L1.86 19.49C1.68 19.8 1.68 20.18 1.86 20.49C2.04 20.8 2.37 20.99 2.73 20.99L21.26 20.99ZM4.46 18.99L12 5.99L19.53 18.99L4.46 18.99ZM10.99 14.99L12.99 14.99L12.99 9.99L10.99 9.99L10.99 14.99ZM13 18L13 16L11 16L11 18L13 18Z" fill="#182233" fill-opacity="1.000000" fill-rule="evenodd"/>
	</g>
</svg>
