<svg width="105.000000" height="33.000000" viewBox="0 0 105 33" fill="none" xmlns="http://www.w3.org/2000/svg" xmlns:xlink="http://www.w3.org/1999/xlink">
	<desc>
			Created with Pixso.
	</desc>
	<defs/>
	<path id="Logo" d="M60.93 3.3C61.32 3.65 61.81 3.83 62.42 3.83C63.03 3.83 63.51 3.65 63.86 3.3C64.24 2.92 64.44 2.42 64.44 1.81C64.44 1.2 64.24 0.72 63.86 0.37C63.51 -0.01 63.03 -0.21 62.42 -0.21C61.81 -0.21 61.32 -0.01 60.93 0.37C60.58 0.72 60.4 1.2 60.4 1.81C60.4 2.42 60.58 2.92 60.93 3.3ZM22.34 30.76C24.58 29.25 26.15 27.16 27.04 24.47L24.64 23.56Q23.85 26.18 22.14 27.89Q21.57 28.46 20.9 28.93C19.11 30.15 16.93 30.76 14.37 30.76C11.97 30.76 9.88 30.2 8.08 29.08Q7.65 28.79 7.25 28.48Q5.2 26.83 3.96 24.18Q2.52 21.01 2.52 16.64Q2.52 12.28 4 9.11Q5.2 6.57 7.16 4.99Q7.65 4.59 8.18 4.26Q8.74 3.9 9.34 3.62Q11.65 2.53 14.47 2.53Q18.36 2.53 20.76 4.26C22.36 5.38 23.52 7.04 24.26 9.25L26.61 8.15Q25.53 5.05 23.38 3.18Q20.1 0.32 14.32 0.32Q10.42 0.32 7.42 1.97Q7.1 2.14 6.79 2.34C4.64 3.65 2.96 5.52 1.75 7.96Q-0.03 11.6 -0.03 16.64Q-0.03 21.68 1.75 25.33Q3.1 28.04 5.22 29.85Q5.96 30.48 6.79 31C8.93 32.31 11.46 32.96 14.37 32.96Q18.49 32.96 21.61 31.2Q21.98 30.99 22.34 30.76ZM48.59 9.35Q46.13 8 42.93 8C40.69 8 38.71 8.5 36.98 9.49C35.29 10.48 33.94 11.92 32.95 13.81C31.99 15.67 31.51 17.89 31.51 20.48C31.51 23.08 31.99 25.32 32.95 27.2C33.94 29.06 35.29 30.48 36.98 31.48C38.71 32.47 40.69 32.96 42.93 32.96C45.17 32.96 47.14 32.47 48.84 31.48C50.57 30.48 51.91 29.06 52.87 27.2C53.86 25.32 54.36 23.08 54.36 20.48C54.36 17.89 53.86 15.67 52.87 13.81C51.91 11.92 50.57 10.48 48.84 9.49Q48.72 9.42 48.59 9.35ZM72.19 8.48L72.19 32.48L74.59 32.48L74.59 18.95Q74.59 16.12 75.79 14.15C76.59 12.84 77.64 11.84 78.96 11.17C80.27 10.47 81.68 10.12 83.18 10.12C85.23 10.12 86.91 10.72 88.22 11.94C89.53 13.16 90.19 15.08 90.19 17.7L90.19 32.48L92.59 32.48L92.59 16.93Q92.59 13.23 90.77 11.05Q90.42 10.62 90 10.26Q89.45 9.78 88.84 9.41Q86.57 8 83.42 8Q80.97 8 78.93 8.92Q78.45 9.13 78 9.39C76.4 10.29 75.23 11.59 74.49 13.28L74.35 8.48L72.19 8.48ZM63.62 32.48L63.62 8.48L61.22 8.48L61.22 32.48L63.62 32.48ZM38.42 11.17Q40.36 10.07 42.93 10.07Q45.54 10.07 47.48 11.21Q48.58 11.85 49.46 12.85C51.13 14.71 51.96 17.25 51.96 20.48C51.96 23.72 51.13 26.26 49.46 28.12Q48.58 29.12 47.48 29.76Q45.54 30.9 42.93 30.9C40.21 30.9 38.02 29.97 36.36 28.12Q36.3 28.05 36.24 27.98Q33.91 25.21 33.91 20.48C33.91 17.25 34.73 14.71 36.36 12.85Q37.28 11.82 38.42 11.17ZM103.02 28.84Q102.54 28.55 101.88 28.55Q101.27 28.55 100.79 28.8Q100.52 28.95 100.3 29.17C99.92 29.56 99.72 30.07 99.72 30.71C99.72 31.35 99.92 31.88 100.3 32.29C100.72 32.68 101.24 32.87 101.88 32.87C102.52 32.87 103.04 32.68 103.42 32.29Q103.64 32.07 103.79 31.8Q104.04 31.32 104.04 30.71C104.04 30.07 103.84 29.56 103.42 29.17Q103.24 28.98 103.02 28.84Z" fill="#FFFFFF" fill-opacity="1.000000" fill-rule="evenodd"/>
</svg>
